#!OML:ASF E:\id_vita\Project 1\Capture day 1\Session 1\Female.ASF
:FULLY-SPECIFIED
:DEGREES
392
root 28.055 16.1047 -0.31925 577.24 86.1312 563.284
lowerback -16.0221 -2.93589 -4.2948
upperback -3.80223 -3.12099 2.42793
thorax 5.28241 -1.51019 4.38466
lowerneck 0.856895 -0.786513 -5.17668
upperneck 17.3928 -1.55349 8.06467
head 5.15192 -0.405422 3.35007
rclavicle 6.83788e-015 3.04141e-014
rhumerus -68.3674 -38.4739 -35.137
rradius 15.6844
rwrist 32.5162
rhand -15.763 3.87377
rfingers 7.12502
rthumb 10.4288 -25.8476
lclavicle 6.83788e-015 3.04141e-014
lhumerus -17.2889 17.9303 89.0922
lradius 28.7193
lwrist -23.2481
lhand -12.319 21.3269
lfingers 7.12502
lthumb 13.7496 50.8525
rfemur -40.7097 6.94175 24.601
rtibia 27.5707
rfoot -1.69664 -0.575269
rtoes -3.89513
lfemur -0.18341 0.743028 -19.5407
ltibia 38.9819
lfoot 6.91954 -17.8798
ltoes -2.00503
393
root 28.2375 16.1308 -0.34468 578.305 86.1728 564.53
lowerback -15.6302 -2.82743 -3.88511
upperback -3.841 -3.05517 2.33277
thorax 4.9966 -1.46762 4.0751
lowerneck 1.0367 -0.704366 -5.20966
upperneck 17.3094 -1.46814 8.27118
head 5.08948 -0.356682 3.42372
rclavicle -5.25226e-015 2.01766e-014
rhumerus -68.3091 -38.9762 -34.883
rradius 15.4305
rwrist 32.8739
rhand -15.5993 4.11214
rfingers 7.12502
rthumb 10.5867 -25.6012
lclavicle -5.25226e-015 2.01766e-014
lhumerus -18.1411 18.4622 88.7732
lradius 28.1174
lwrist -23.7118
lhand -12.3491 20.887
lfingers 7.12502
lthumb 13.7206 50.4146
rfemur -40.0886 6.12175 25.1699
rtibia 28.3441
rfoot -2.45419 0.236712
rtoes -3.48195
lfemur -1.08395 1.44651 -19.3363
ltibia 41.343
lfoot 8.94518 -17.9864
ltoes -3.78312
394
root 28.4455 16.139 -0.332381 582.016 85.9286 568.611
lowerback -15.4147 -2.79592 -3.77302
upperback -3.80261 -3.05015 2.47795
thorax 4.92281 -1.46557 4.17278
lowerneck 1.0543 -0.669085 -5.20451
upperneck 17.5261 -1.42536 8.30859
head 5.15029 -0.325943 3.44044
rclavicle 5.36734e-014 -2.26615e-014
rhumerus -67.6934 -38.9065 -35.6499
rradius 15.3774
rwrist 32.1875
rhand -15.3222 4.11403
rfingers 7.12502
rthumb 10.854 -25.5855
lclavicle 5.36734e-014 -2.26615e-014
lhumerus -19.0907 19.1603 88.4806
lradius 27.4047
lwrist -24.4475
lhand -12.1773 20.8127
lfingers 7.12502
lthumb 13.8862 50.3291
rfemur -39.1961 6.12691 25.8536
rtibia 29.0367
rfoot -3.22972 -0.178556
rtoes -5.94858
lfemur -1.6769 2.04054 -18.5364
ltibia 43.797
lfoot 10.5778 -17.6377
ltoes -4.39866
395
root 28.6354 16.1641 -0.340235 581.113 85.9064 567.88
lowerback -15.2723 -2.74901 -3.72905
upperback -3.81446 -2.99726 2.41887
thorax 4.82242 -1.43727 4.09968
lowerneck 0.910889 -0.742101 -5.18513
upperneck 17.7797 -1.53888 8.40291
head 5.2612 -0.364266 3.4671
rclavicle 1.72073e-015 -1.85864e-014
rhumerus -67.0323 -38.8172 -36.6912
rradius 15.4942
rwrist 31.2796
rhand -14.993 4.2121
rfingers 7.12502
rthumb 11.1715 -25.4705
lclavicle 1.72073e-015 -1.85864e-014
lhumerus -19.9916 19.9017 88.118
lradius 26.7419
lwrist -25.0781
lhand -11.737 20.9956
lfingers 7.12502
lthumb 14.3104 50.4825
rfemur -38.4941 5.62805 26.1371
rtibia 29.6861
rfoot -4.47385 -0.404569
rtoes -8.42514
lfemur -2.80386 2.52914 -18.444
ltibia 46.3933
lfoot 11.8956 -16.3611
ltoes -7.30502
396
root 28.8249 16.182 -0.344542 581.52 85.8293 568.36
lowerback -15.2242 -2.7058 -3.58419
upperback -3.85292 -2.95875 2.35636
thorax 4.74138 -1.41374 3.96035
lowerneck 1.01231 -0.743974 -5.12716
upperneck 17.9312 -1.56159 8.53433
head 5.29207 -0.358295 3.50134
rclavicle 3.15338e-014 -2.54444e-014
rhumerus -66.7783 -39.0783 -37.1086
rradius 15.5415
rwrist 31.1935
rhand -14.6685 4.44044
rfingers 7.12502
rthumb 11.4844 -25.225
lclavicle 3.15338e-014 -2.54444e-014
lhumerus -20.9128 20.844 87.6162
lradius 26.1642
lwrist -25.9753
lhand -11.1654 21.2114
lfingers 7.12502
lthumb 14.8612 50.6584
rfemur -37.9118 5.57308 26.352
rtibia 30.2793
rfoot -5.23019 -0.881861
rtoes -7.94061
lfemur -3.93467 2.97822 -18.197
ltibia 49.0254
lfoot 12.4708 -14.2772
ltoes -5.40074
397
root 29.0209 16.1977 -0.32724 582.193 85.5599 569.086
lowerback -15.2221 -2.77081 -3.68269
upperback -3.9144 -3.02945 2.42669
thorax 4.69068 -1.44596 4.07834
lowerneck 1.0866 -0.820081 -5.12832
upperneck 18.1488 -1.68455 8.66466
head 5.35601 -0.402777 3.54246
rclavicle 2.89123e-014 5.2181e-015
rhumerus -65.9823 -38.8396 -38.4024
rradius 15.6973
rwrist 30.6061
rhand -14.3774 4.55706
rfingers 7.12502
rthumb 11.7652 -25.0925
lclavicle 2.89123e-014 5.2181e-015
lhumerus -21.8892 21.9645 87.0297
lradius 25.5633
lwrist -27.1692
lhand -10.3966 21.4526
lfingers 7.12502
lthumb 15.6017 50.8434
rfemur -37.2966 5.97034 26.5783
rtibia 30.7299
rfoot -5.38634 -1.75071
rtoes -5.69494
lfemur -5.10695 3.42829 -17.645
ltibia 51.7199
lfoot 12.1308 -11.9755
ltoes -5.68192
398
root 29.1911 16.2255 -0.327977 579.249 85.322 566.131
lowerback -15.0549 -2.80643 -3.81207
upperback -3.97453 -3.05771 2.36637
thorax 4.54245 -1.45649 4.0881
lowerneck 1.17275 -0.941963 -5.21551
upperneck 18.2481 -1.87841 8.88619
head 5.38737 -0.485249 3.62245
rclavicle -3.35496e-014 -1.14301e-015
rhumerus -64.4412 -38.0406 -41.0249
rradius 16.0815
rwrist 28.7841
rhand -14.1044 4.56698
rfingers 7.12502
rthumb 12.0284 -25.0674
lclavicle -3.35496e-014 -1.14301e-015
lhumerus -22.6878 23.1082 86.4787
lradius 24.788
lwrist -28.3435
lhand -9.79466 21.552
lfingers 7.12502
lthumb 16.1814 50.8966
rfemur -36.7233 5.67134 26.6209
rtibia 31.0323
rfoot -5.75412 -2.1657
rtoes -4.93713
lfemur -6.61716 3.66199 -17.5863
ltibia 54.334
lfoot 11.565 -9.2387
ltoes -1.53116
399
root 29.3778 16.249 -0.312296 578.048 84.9076 564.959
lowerback -15.1736 -2.82104 -4.00114
upperback -3.89555 -3.04727 2.39061
thorax 4.69993 -1.45831 4.2188
lowerneck 1.05306 -1.12048 -5.35425
upperneck 18.377 -2.15197 9.13906
head 5.47049 -0.604289 3.71806
rclavicle 3.90099e-014 -1.34428e-014
rhumerus -63.0254 -37.4082 -43.47
rradius 16.5375
rwrist 26.9242
rhand -13.7575 4.61392
rfingers 7.12502
rthumb 12.3629 -25.0005
lclavicle 3.90099e-014 -1.34428e-014
lhumerus -23.3442 24.3337 85.9471
lradius 23.791
lwrist -29.6931
lhand -9.54098 21.4812
lfingers 7.12502
lthumb 16.4256 50.8058
rfemur -35.9351 5.77026 26.8295
rtibia 31.084
rfoot -5.94927 -2.98847
rtoes -5.82381
lfemur -8.20455 3.89263 -17.1648
ltibia 56.8319
lfoot 10.6902 -6.69247
ltoes 1.03563
400
root 29.5535 16.2795 -0.313388 577.311 84.493 564.198
lowerback -15.2 -2.78344 -3.93611
upperback -3.88906 -3.00546 2.39344
thorax 4.71376 -1.43692 4.19232
lowerneck 0.698831 -1.38946 -5.42372
upperneck 18.693 -2.53187 9.22849
head 5.66096 -0.771783 3.7465
rclavicle 2.80748e-014 -2.05991e-014
rhumerus -61.7957 -36.8839 -45.5032
rradius 16.9755
rwrist 25.4104
rhand -13.4434 4.78831
rfingers 7.12502
rthumb 12.6657 -24.8076
lclavicle 2.80748e-014 -2.05991e-014
lhumerus -24.0953 25.6977 85.3175
lradius 22.747
lwrist -31.1746
lhand -9.14478 21.9858
lfingers 7.12502
lthumb 16.8071 51.2784
rfemur -35.123 5.37375 27.1134
rtibia 30.9897
rfoot -6.44654 -3.3094
rtoes -6.93831
lfemur -9.83142 3.97523 -16.9333
ltibia 59.1033
lfoot 9.7275 -4.15881
ltoes 2.24142
401
root 29.7411 16.3187 -0.309164 580.063 83.9553 567.045
lowerback -15.2991 -2.72795 -3.55681
upperback -3.8071 -2.99478 2.51073
thorax 4.84118 -1.4326 4.09933
lowerneck 1.98283 -1.02096 -5.46892
upperneck 17.676 -2.06161 9.61803
head 5.089 -0.569151 3.88497
rclavicle -1.11801e-014 1.94001e-014
rhumerus -60.3689 -36.0101 -47.9475
rradius 17.566
rwrist 23.6353
rhand -13.1252 4.96538
rfingers 7.12502
rthumb 12.9725 -24.6113
lclavicle -1.11801e-014 1.94001e-014
lhumerus -24.8892 27.2545 84.5054
lradius 21.7418
lwrist -32.6681
lhand -8.44841 22.8906
lfingers 7.12502
lthumb 17.4773 52.125
rfemur -34.1926 5.45626 27.7713
rtibia 30.7428
rfoot -6.62337 -3.78128
rtoes -6.03942
lfemur -11.4616 4.26005 -16.2088
ltibia 61.1899
lfoot 8.13333 -2.03612
ltoes -1.00707
402
root 29.9119 16.3611 -0.311791 579.577 83.6207 566.419
lowerback -15.4841 -2.73556 -3.49967
upperback -3.78094 -3.00694 2.51736
thorax 4.96783 -1.43978 4.06584
lowerneck 1.53599 -1.17961 -5.28142
upperneck 18.1209 -2.25518 9.37658
head 5.31638 -0.644387 3.77476
rclavicle 6.65492e-015 -2.91996e-014
rhumerus -58.7969 -34.8807 -50.6758
rradius 18.34
rwrist 21.6557
rhand -12.7225 5.12311
rfingers 7.12502
rthumb 13.3606 -24.4285
lclavicle 6.65492e-015 -2.91996e-014
lhumerus -25.6888 29.0349 83.5601
lradius 20.8092
lwrist -34.366
lhand -7.75838 22.9469
lfingers 7.12502
lthumb 18.1413 52.1209
rfemur -33.5481 5.01134 28.0426
rtibia 30.4851
rfoot -6.88557 -3.80434
rtoes -3.91477
lfemur -13.3975 4.45903 -16.1833
ltibia 62.9776
lfoot 6.70972 0.223583
ltoes -5.78332
403
root 30.0811 16.3781 -0.311598 579.831 83.0873 566.774
lowerback -15.5309 -2.75096 -3.33084
upperback -3.65141 -3.06291 2.60523
thorax 5.13277 -1.4729 4.0485
lowerneck 1.2611 -1.33294 -5.33472
upperneck 18.3732 -2.46125 9.34777
head 5.45862 -0.73751 3.76963
rclavicle -1.22674e-014 -5.98218e-015
rhumerus -57.3895 -34.185 -52.6801
rradius 18.7506
rwrist 20.5532
rhand -12.5161 5.28419
rfingers 7.12502
rthumb 13.5596 -24.2543
lclavicle -1.22674e-014 -5.98218e-015
lhumerus -26.5957 31.0743 82.4441
lradius 19.9244
lwrist -36.5132
lhand -7.14978 22.7526
lfingers 7.12502
lthumb 18.7268 51.8712
rfemur -32.5628 4.65595 28.5343
rtibia 30.2066
rfoot -7.11428 -4.18935
rtoes -3.56473
lfemur -14.5182 4.01668 -15.6512
ltibia 64.6553
lfoot 4.55042 3.11425
ltoes -4.90659
404
root 30.2522 16.3923 -0.305543 578.441 82.8062 565.357
lowerback -15.7303 -2.80443 -3.57041
upperback -3.55874 -3.0927 2.60855
thorax 5.3547 -1.49709 4.1753
lowerneck 1.09848 -1.45773 -5.26208
upperneck 18.5007 -2.62441 9.27618
head 5.53817 -0.809473 3.72856
rclavicle -1.31167e-014 3.18304e-014
rhumerus -56.1798 -33.8265 -54.1139
rradius 18.7976
rwrist 20.1421
rhand -12.4656 5.52684
rfingers 7.12502
rthumb 13.6083 -24.0084
lclavicle -1.31167e-014 3.18304e-014
lhumerus -27.6872 33.3763 80.9735
lradius 18.8983
lwrist -39.071
lhand -6.69934 22.886
lfingers 7.12502
lthumb 19.16 51.9623
rfemur -31.7603 4.64259 28.6075
rtibia 29.9299
rfoot -7.3029 -4.90979
rtoes -4.04997
lfemur -15.8973 3.81289 -15.5701
ltibia 66.0677
lfoot 2.52983 5.45009
ltoes -6.01235
405
root 30.3973 16.4223 -0.324557 577.178 82.6442 564.037
lowerback -15.5695 -2.72746 -3.41435
upperback -3.59882 -3.01172 2.46751
thorax 5.20118 -1.45101 3.95769
lowerneck 1.06801 -1.60022 -5.15533
upperneck 18.6414 -2.81823 9.24443
head 5.60128 -0.891852 3.69378
rclavicle 6.54514e-015 -5.51627e-015
rhumerus -54.975 -33.2539 -55.7931
rradius 18.9792
rwrist 19.353
rhand -12.5076 5.66689
rfingers 7.12502
rthumb 13.5678 -23.871
lclavicle 6.54514e-015 -5.51627e-015
lhumerus -28.9985 35.9227 79.0781
lradius 17.731
lwrist -41.8483
lhand -6.47769 22.8291
lfingers 7.12502
lthumb 19.3731 51.884
rfemur -31.0646 4.15079 28.6219
rtibia 29.6143
rfoot -7.69314 -4.84757
rtoes -4.55158
lfemur -17.4881 3.52747 -15.8119
ltibia 67.3371
lfoot 1.10019 6.977
ltoes -4.83935
406
root 30.5483 16.4531 -0.329225 577.937 82.1613 564.965
lowerback -15.2186 -2.6284 -3.0547
upperback -3.60959 -2.94878 2.47724
thorax 4.97656 -1.41293 3.78609
lowerneck 1.32904 -1.6899 -5.34652
upperneck 18.5778 -2.98228 9.61738
head 5.55435 -0.963524 3.84025
rclavicle 8.4499e-015 1.44119e-015
rhumerus -53.8084 -32.5282 -57.5645
rradius 19.2716
rwrist 18.3697
rhand -12.7675 5.57292
rfingers 7.12502
rthumb 13.3173 -23.9816
lclavicle 8.4499e-015 1.44119e-015
lhumerus -30.7602 38.8043 76.7054
lradius 16.6436
lwrist -45.1037
lhand -6.55461 22.5342
lfingers 7.12502
lthumb 19.2991 51.5966
rfemur -30.0912 3.7719 29.0962
rtibia 29.2717
rfoot -7.8802 -4.71614
rtoes -5.16191
lfemur -18.95 3.16902 -15.4463
ltibia 68.4225
lfoot -0.117385 7.92452
ltoes -2.44
